<?xml version="1.0" encoding="UTF-8" standalone="no"?>
<svg width="468" height="70" version="1.1" xmlns:svg="http://www.w3.org/2000/svg" xmlns="http://www.w3.org/2000/svg">
 <defs>
  <linearGradient id="grad1" x1="0" y1="0" x2="0" y2="1">
   <stop style="stop-color:#E8B7D7;stop-opacity:1;" offset="0" />
   <stop style="stop-color:#F491DF;stop-opacity:1;" offset="1" />
  </linearGradient>
  <linearGradient id="grad2" x1="0" y1="0" x2="0" y2="1">
   <stop style="stop-color:#A4C0E4;stop-opacity:1;" offset="0" />
   <stop style="stop-color:#6193CF;stop-opacity:1;" offset="1" />
  </linearGradient>
  <linearGradient id="grad3" x1="0" y1="0" x2="0" y2="1">
   <stop style="stop-color:#FFF6C8;stop-opacity:1;" offset="0" />
   <stop style="stop-color:#FFF299;stop-opacity:1;" offset="1" />
  </linearGradient>
  <linearGradient id="grad4" x1="0" y1="0" x2="0" y2="1">
   <stop style="stop-color:#BFFFBF;stop-opacity:1;" offset="0" />
   <stop style="stop-color:#80FF80;stop-opacity:1;" offset="1" />
  </linearGradient>
 </defs>
 <g>
  <text x="0" y="15" style="font-size:13px;">T1</text>
  <text x="0" y="35" style="font-size:13px;">T2</text>
  <path d="M 25,0 25,45" style="stroke-width:1;stroke:#000000;" />
  <path d="M 25,45 468,45" style="stroke-width:1;stroke:#000000;" />
  <path d="M 30,0 30, 45" style="stroke-width:1;stroke:#888888;stroke-dasharray:4,4" />
  <text x="30" y="70" style="font-size:13px;text-anchor:middle;">0</text>
  <path d="M 50,0 50, 45" style="stroke-width:1;stroke:#888888;stroke-dasharray:4,4" />
  <path d="M 70,0 70, 45" style="stroke-width:1;stroke:#888888;stroke-dasharray:4,4" />
  <text x="70" y="70" style="font-size:13px;text-anchor:middle;">20</text>
  <path d="M 90,0 90, 45" style="stroke-width:1;stroke:#888888;stroke-dasharray:4,4" />
  <path d="M 110,0 110, 45" style="stroke-width:1;stroke:#888888;stroke-dasharray:4,4" />
  <text x="110" y="70" style="font-size:13px;text-anchor:middle;">40</text>
  <path d="M 130,0 130, 45" style="stroke-width:1;stroke:#888888;stroke-dasharray:4,4" />
  <path d="M 150,0 150, 45" style="stroke-width:1;stroke:#888888;stroke-dasharray:4,4" />
  <text x="150" y="70" style="font-size:13px;text-anchor:middle;">60</text>
  <path d="M 170,0 170, 45" style="stroke-width:1;stroke:#888888;stroke-dasharray:4,4" />
  <path d="M 190,0 190, 45" style="stroke-width:1;stroke:#888888;stroke-dasharray:4,4" />
  <text x="190" y="70" style="font-size:13px;text-anchor:middle;">80</text>
  <path d="M 210,0 210, 45" style="stroke-width:1;stroke:#888888;stroke-dasharray:4,4" />
  <path d="M 230,0 230, 45" style="stroke-width:1;stroke:#888888;stroke-dasharray:4,4" />
  <text x="230" y="70" style="font-size:13px;text-anchor:middle;">100</text>
  <path d="M 250,0 250, 45" style="stroke-width:1;stroke:#888888;stroke-dasharray:4,4" />
  <path d="M 270,0 270, 45" style="stroke-width:1;stroke:#888888;stroke-dasharray:4,4" />
  <text x="270" y="70" style="font-size:13px;text-anchor:middle;">120</text>
  <path d="M 290,0 290, 45" style="stroke-width:1;stroke:#888888;stroke-dasharray:4,4" />
  <path d="M 310,0 310, 45" style="stroke-width:1;stroke:#888888;stroke-dasharray:4,4" />
  <text x="310" y="70" style="font-size:13px;text-anchor:middle;">140</text>
  <path d="M 330,0 330, 45" style="stroke-width:1;stroke:#888888;stroke-dasharray:4,4" />
  <path d="M 350,0 350, 45" style="stroke-width:1;stroke:#888888;stroke-dasharray:4,4" />
  <text x="350" y="70" style="font-size:13px;text-anchor:middle;">160</text>
  <path d="M 370,0 370, 45" style="stroke-width:1;stroke:#888888;stroke-dasharray:4,4" />
  <path d="M 390,0 390, 45" style="stroke-width:1;stroke:#888888;stroke-dasharray:4,4" />
  <text x="390" y="70" style="font-size:13px;text-anchor:middle;">180</text>
  <path d="M 410,0 410, 45" style="stroke-width:1;stroke:#888888;stroke-dasharray:4,4" />
  <path d="M 430,0 430, 45" style="stroke-width:1;stroke:#888888;stroke-dasharray:4,4" />
  <text x="430" y="70" style="font-size:13px;text-anchor:middle;">200</text>
  <path d="M 450,0 450, 45" style="stroke-width:1;stroke:#888888;stroke-dasharray:4,4" />
  <rect x="32" y="2" width="40" height="20" style="color:#000000;fill:#000000;opacity:0.3" />
  <rect x="30" y="0" width="40" height="20" style="fill:url(#grad1);stroke:#000000;stroke-width:1;" />
  <rect x="132" y="2" width="40" height="20" style="color:#000000;fill:#000000;opacity:0.3" />
  <rect x="130" y="0" width="40" height="20" style="fill:url(#grad1);stroke:#000000;stroke-width:1;" />
  <rect x="232" y="2" width="40" height="20" style="color:#000000;fill:#000000;opacity:0.3" />
  <rect x="230" y="0" width="40" height="20" style="fill:url(#grad1);stroke:#000000;stroke-width:1;" />
  <rect x="332" y="2" width="40" height="20" style="color:#000000;fill:#000000;opacity:0.3" />
  <rect x="330" y="0" width="40" height="20" style="fill:url(#grad1);stroke:#000000;stroke-width:1;" />
  <rect x="432" y="2" width="40" height="20" style="color:#000000;fill:#000000;opacity:0.3" />
  <rect x="430" y="0" width="40" height="20" style="fill:url(#grad1);stroke:#000000;stroke-width:1;" />
  <rect x="72" y="22" width="60" height="20" style="color:#000000;fill:#000000;opacity:0.3" />
  <rect x="70" y="20" width="60" height="20" style="fill:url(#grad2);stroke:#000000;stroke-width:1;" />
  <rect x="172" y="22" width="60" height="20" style="color:#000000;fill:#000000;opacity:0.3" />
  <rect x="170" y="20" width="60" height="20" style="fill:url(#grad2);stroke:#000000;stroke-width:1;" />
  <rect x="272" y="22" width="40" height="20" style="color:#000000;fill:#000000;opacity:0.3" />
  <rect x="270" y="20" width="40" height="20" style="fill:url(#grad2);stroke:#000000;stroke-width:1;" />
  <rect x="372" y="22" width="40" height="20" style="color:#000000;fill:#000000;opacity:0.3" />
  <rect x="370" y="20" width="40" height="20" style="fill:url(#grad2);stroke:#000000;stroke-width:1;" />
  <path d="M 30,0 30,20 25,15 30,20 35,15 30,20" style="stroke-width:1;stroke:#000000;fill:transparent;stroke-linejoin:bevel;" />
  <rect x="107" y="14" width="6" height="6" style="fill:#ffffff;stroke-width:1;stroke:#000000;" />
  <path d="M 130,0 130,20 125,15 130,20 135,15 130,20" style="stroke-width:1;stroke:#000000;fill:transparent;stroke-linejoin:bevel;" />
  <rect x="207" y="14" width="6" height="6" style="fill:#ffffff;stroke-width:1;stroke:#000000;" />
  <path d="M 230,0 230,20 225,15 230,20 235,15 230,20" style="stroke-width:1;stroke:#000000;fill:transparent;stroke-linejoin:bevel;" />
  <rect x="307" y="14" width="6" height="6" style="fill:#ffffff;stroke-width:1;stroke:#000000;" />
  <path d="M 330,0 330,20 325,15 330,20 335,15 330,20" style="stroke-width:1;stroke:#000000;fill:transparent;stroke-linejoin:bevel;" />
  <rect x="407" y="14" width="6" height="6" style="fill:#ffffff;stroke-width:1;stroke:#000000;" />
  <path d="M 430,0 430,20 425,15 430,20 435,15 430,20" style="stroke-width:1;stroke:#000000;fill:transparent;stroke-linejoin:bevel;" />
  <rect x="507" y="14" width="6" height="6" style="fill:#ffffff;stroke-width:1;stroke:#000000;" />
  <path d="M 30,20 30,40 25,35 30,40 35,35 30,40" style="stroke-width:1;stroke:#000000;fill:transparent;stroke-linejoin:bevel;" />
  <rect x="107" y="34" width="6" height="6" style="fill:#ffffff;stroke-width:1;stroke:#000000;" />
  <path d="M 110,20 110,40 105,35 110,40 115,35 110,40" style="stroke-width:1;stroke:#000000;fill:transparent;stroke-linejoin:bevel;" />
  <rect x="187" y="34" width="6" height="6" style="fill:#ffffff;stroke-width:1;stroke:#000000;" />
  <path d="M 190,20 190,40 185,35 190,40 195,35 190,40" style="stroke-width:1;stroke:#000000;fill:transparent;stroke-linejoin:bevel;" />
  <rect x="267" y="34" width="6" height="6" style="fill:#ffffff;stroke-width:1;stroke:#000000;" />
  <path d="M 270,20 270,40 265,35 270,40 275,35 270,40" style="stroke-width:1;stroke:#000000;fill:transparent;stroke-linejoin:bevel;" />
  <rect x="347" y="34" width="6" height="6" style="fill:#ffffff;stroke-width:1;stroke:#000000;" />
  <path d="M 350,20 350,40 345,35 350,40 355,35 350,40" style="stroke-width:1;stroke:#000000;fill:transparent;stroke-linejoin:bevel;" />
  <rect x="427" y="34" width="6" height="6" style="fill:#ffffff;stroke-width:1;stroke:#000000;" />
  <path d="M 430,20 430,40 425,35 430,40 435,35 430,40" style="stroke-width:1;stroke:#000000;fill:transparent;stroke-linejoin:bevel;" />
  <rect x="507" y="34" width="6" height="6" style="fill:#ffffff;stroke-width:1;stroke:#000000;" />
 </g>
</svg>
