<?xml version="1.0" encoding="UTF-8" standalone="no"?>
<svg width="168" height="110" version="1.1" xmlns:svg="http://www.w3.org/2000/svg" xmlns="http://www.w3.org/2000/svg">
 <defs>
  <linearGradient id="grad1" x1="0" y1="0" x2="0" y2="1">
   <stop style="stop-color:#E8B7D7;stop-opacity:1;" offset="0" />
   <stop style="stop-color:#F491DF;stop-opacity:1;" offset="1" />
  </linearGradient>
  <linearGradient id="grad2" x1="0" y1="0" x2="0" y2="1">
   <stop style="stop-color:#A4C0E4;stop-opacity:1;" offset="0" />
   <stop style="stop-color:#6193CF;stop-opacity:1;" offset="1" />
  </linearGradient>
  <linearGradient id="grad3" x1="0" y1="0" x2="0" y2="1">
   <stop style="stop-color:#FFF6C8;stop-opacity:1;" offset="0" />
   <stop style="stop-color:#FFF299;stop-opacity:1;" offset="1" />
  </linearGradient>
  <linearGradient id="grad4" x1="0" y1="0" x2="0" y2="1">
   <stop style="stop-color:#BFFFBF;stop-opacity:1;" offset="0" />
   <stop style="stop-color:#80FF80;stop-opacity:1;" offset="1" />
  </linearGradient>
 </defs>
 <g>
  <text x="0" y="15" style="font-size:13px;">T1</text>
  <text x="0" y="35" style="font-size:13px;">T2</text>
  <text x="0" y="55" style="font-size:13px;">T3</text>
  <text x="0" y="75" style="font-size:13px;">T4</text>
  <path d="M 25,0 25,85" style="stroke-width:1;stroke:#000000;" />
  <path d="M 25,85 168,85" style="stroke-width:1;stroke:#000000;" />
  <path d="M 30,0 30, 85" style="stroke-width:1;stroke:#888888;stroke-dasharray:4,4" />
  <text x="30" y="110" style="font-size:13px;text-anchor:middle;">0</text>
  <path d="M 50,0 50, 85" style="stroke-width:1;stroke:#888888;stroke-dasharray:4,4" />
  <path d="M 70,0 70, 85" style="stroke-width:1;stroke:#888888;stroke-dasharray:4,4" />
  <text x="70" y="110" style="font-size:13px;text-anchor:middle;">20</text>
  <path d="M 90,0 90, 85" style="stroke-width:1;stroke:#888888;stroke-dasharray:4,4" />
  <path d="M 110,0 110, 85" style="stroke-width:1;stroke:#888888;stroke-dasharray:4,4" />
  <text x="110" y="110" style="font-size:13px;text-anchor:middle;">40</text>
  <path d="M 130,0 130, 85" style="stroke-width:1;stroke:#888888;stroke-dasharray:4,4" />
  <path d="M 150,0 150, 85" style="stroke-width:1;stroke:#888888;stroke-dasharray:4,4" />
  <text x="150" y="110" style="font-size:13px;text-anchor:middle;">60</text>
  <rect x="112" y="2" width="20" height="20" style="color:#000000;fill:#000000;opacity:0.3" />
  <rect x="110" y="0" width="20" height="20" style="fill:url(#grad1);stroke:#000000;stroke-width:1;" />
  <rect x="52" y="22" width="20" height="20" style="color:#000000;fill:#000000;opacity:0.3" />
  <rect x="50" y="20" width="20" height="20" style="fill:url(#grad2);stroke:#000000;stroke-width:1;" />
  <rect x="152" y="22" width="20" height="20" style="color:#000000;fill:#000000;opacity:0.3" />
  <rect x="150" y="20" width="20" height="20" style="fill:url(#grad2);stroke:#000000;stroke-width:1;" />
  <rect x="32" y="42" width="20" height="20" style="color:#000000;fill:#000000;opacity:0.3" />
  <rect x="30" y="40" width="20" height="20" style="fill:url(#grad3);stroke:#000000;stroke-width:1;" />
  <rect x="72" y="42" width="20" height="20" style="color:#000000;fill:#000000;opacity:0.3" />
  <rect x="70" y="40" width="20" height="20" style="fill:url(#grad3);stroke:#000000;stroke-width:1;" />
  <rect x="132" y="42" width="20" height="20" style="color:#000000;fill:#000000;opacity:0.3" />
  <rect x="130" y="40" width="20" height="20" style="fill:url(#grad3);stroke:#000000;stroke-width:1;" />
  <rect x="92" y="62" width="20" height="20" style="color:#000000;fill:#000000;opacity:0.3" />
  <rect x="90" y="60" width="20" height="20" style="fill:url(#grad4);stroke:#000000;stroke-width:1;" />
  <path d="M 110,0 110,20 105,15 110,20 115,15 110,20" style="stroke-width:1;stroke:#000000;fill:transparent;stroke-linejoin:bevel;" />
  <rect x="167" y="14" width="6" height="6" style="fill:#ffffff;stroke-width:1;stroke:#000000;" />
  <path d="M 50,20 50,40 45,35 50,40 55,35 50,40" style="stroke-width:1;stroke:#000000;fill:transparent;stroke-linejoin:bevel;" />
  <rect x="147" y="34" width="6" height="6" style="fill:#ffffff;stroke-width:1;stroke:#000000;" />
  <path d="M 150,20 150,40 145,35 150,40 155,35 150,40" style="stroke-width:1;stroke:#000000;fill:transparent;stroke-linejoin:bevel;" />
  <rect x="247" y="34" width="6" height="6" style="fill:#ffffff;stroke-width:1;stroke:#000000;" />
  <path d="M 30,40 30,60 25,55 30,60 35,55 30,60" style="stroke-width:1;stroke:#000000;fill:transparent;stroke-linejoin:bevel;" />
  <rect x="127" y="54" width="6" height="6" style="fill:#ffffff;stroke-width:1;stroke:#000000;" />
  <path d="M 130,40 130,60 125,55 130,60 135,55 130,60" style="stroke-width:1;stroke:#000000;fill:transparent;stroke-linejoin:bevel;" />
  <rect x="227" y="54" width="6" height="6" style="fill:#ffffff;stroke-width:1;stroke:#000000;" />
  <path d="M 50,60 50,80 45,75 50,80 55,75 50,80" style="stroke-width:1;stroke:#000000;fill:transparent;stroke-linejoin:bevel;" />
  <rect x="167" y="74" width="6" height="6" style="fill:#ffffff;stroke-width:1;stroke:#000000;" />
 </g>
</svg>
