<?xml version="1.0" encoding="UTF-8" standalone="no"?>
<svg width="748" height="90" version="1.1" xmlns:svg="http://www.w3.org/2000/svg" xmlns="http://www.w3.org/2000/svg">
 <defs>
  <linearGradient id="grad1" x1="0" y1="0" x2="0" y2="1">
   <stop style="stop-color:#E8B7D7;stop-opacity:1;" offset="0" />
   <stop style="stop-color:#F491DF;stop-opacity:1;" offset="1" />
  </linearGradient>
  <linearGradient id="grad2" x1="0" y1="0" x2="0" y2="1">
   <stop style="stop-color:#A4C0E4;stop-opacity:1;" offset="0" />
   <stop style="stop-color:#6193CF;stop-opacity:1;" offset="1" />
  </linearGradient>
  <linearGradient id="grad3" x1="0" y1="0" x2="0" y2="1">
   <stop style="stop-color:#FFF6C8;stop-opacity:1;" offset="0" />
   <stop style="stop-color:#FFF299;stop-opacity:1;" offset="1" />
  </linearGradient>
  <linearGradient id="grad4" x1="0" y1="0" x2="0" y2="1">
   <stop style="stop-color:#BFFFBF;stop-opacity:1;" offset="0" />
   <stop style="stop-color:#80FF80;stop-opacity:1;" offset="1" />
  </linearGradient>
 </defs>
 <g>
  <text x="0" y="15" style="font-size:13px;">T1</text>
  <text x="0" y="35" style="font-size:13px;">T2</text>
  <text x="0" y="55" style="font-size:13px;">T3</text>
  <path d="M 25,0 25,65" style="stroke-width:1;stroke:#000000;" />
  <path d="M 25,65 748,65" style="stroke-width:1;stroke:#000000;" />
  <path d="M 30,0 30, 65" style="stroke-width:1;stroke:#888888;stroke-dasharray:4,4" />
  <text x="30" y="90" style="font-size:13px;text-anchor:middle;">0</text>
  <path d="M 50,0 50, 65" style="stroke-width:1;stroke:#888888;stroke-dasharray:4,4" />
  <path d="M 70,0 70, 65" style="stroke-width:1;stroke:#888888;stroke-dasharray:4,4" />
  <text x="70" y="90" style="font-size:13px;text-anchor:middle;">20</text>
  <path d="M 90,0 90, 65" style="stroke-width:1;stroke:#888888;stroke-dasharray:4,4" />
  <path d="M 110,0 110, 65" style="stroke-width:1;stroke:#888888;stroke-dasharray:4,4" />
  <text x="110" y="90" style="font-size:13px;text-anchor:middle;">40</text>
  <path d="M 130,0 130, 65" style="stroke-width:1;stroke:#888888;stroke-dasharray:4,4" />
  <path d="M 150,0 150, 65" style="stroke-width:1;stroke:#888888;stroke-dasharray:4,4" />
  <text x="150" y="90" style="font-size:13px;text-anchor:middle;">60</text>
  <path d="M 170,0 170, 65" style="stroke-width:1;stroke:#888888;stroke-dasharray:4,4" />
  <path d="M 190,0 190, 65" style="stroke-width:1;stroke:#888888;stroke-dasharray:4,4" />
  <text x="190" y="90" style="font-size:13px;text-anchor:middle;">80</text>
  <path d="M 210,0 210, 65" style="stroke-width:1;stroke:#888888;stroke-dasharray:4,4" />
  <path d="M 230,0 230, 65" style="stroke-width:1;stroke:#888888;stroke-dasharray:4,4" />
  <text x="230" y="90" style="font-size:13px;text-anchor:middle;">100</text>
  <path d="M 250,0 250, 65" style="stroke-width:1;stroke:#888888;stroke-dasharray:4,4" />
  <path d="M 270,0 270, 65" style="stroke-width:1;stroke:#888888;stroke-dasharray:4,4" />
  <text x="270" y="90" style="font-size:13px;text-anchor:middle;">120</text>
  <path d="M 290,0 290, 65" style="stroke-width:1;stroke:#888888;stroke-dasharray:4,4" />
  <path d="M 310,0 310, 65" style="stroke-width:1;stroke:#888888;stroke-dasharray:4,4" />
  <text x="310" y="90" style="font-size:13px;text-anchor:middle;">140</text>
  <path d="M 330,0 330, 65" style="stroke-width:1;stroke:#888888;stroke-dasharray:4,4" />
  <path d="M 350,0 350, 65" style="stroke-width:1;stroke:#888888;stroke-dasharray:4,4" />
  <text x="350" y="90" style="font-size:13px;text-anchor:middle;">160</text>
  <path d="M 370,0 370, 65" style="stroke-width:1;stroke:#888888;stroke-dasharray:4,4" />
  <path d="M 390,0 390, 65" style="stroke-width:1;stroke:#888888;stroke-dasharray:4,4" />
  <text x="390" y="90" style="font-size:13px;text-anchor:middle;">180</text>
  <path d="M 410,0 410, 65" style="stroke-width:1;stroke:#888888;stroke-dasharray:4,4" />
  <path d="M 430,0 430, 65" style="stroke-width:1;stroke:#888888;stroke-dasharray:4,4" />
  <text x="430" y="90" style="font-size:13px;text-anchor:middle;">200</text>
  <path d="M 450,0 450, 65" style="stroke-width:1;stroke:#888888;stroke-dasharray:4,4" />
  <path d="M 470,0 470, 65" style="stroke-width:1;stroke:#888888;stroke-dasharray:4,4" />
  <text x="470" y="90" style="font-size:13px;text-anchor:middle;">220</text>
  <path d="M 490,0 490, 65" style="stroke-width:1;stroke:#888888;stroke-dasharray:4,4" />
  <path d="M 510,0 510, 65" style="stroke-width:1;stroke:#888888;stroke-dasharray:4,4" />
  <text x="510" y="90" style="font-size:13px;text-anchor:middle;">240</text>
  <path d="M 530,0 530, 65" style="stroke-width:1;stroke:#888888;stroke-dasharray:4,4" />
  <path d="M 550,0 550, 65" style="stroke-width:1;stroke:#888888;stroke-dasharray:4,4" />
  <text x="550" y="90" style="font-size:13px;text-anchor:middle;">260</text>
  <path d="M 570,0 570, 65" style="stroke-width:1;stroke:#888888;stroke-dasharray:4,4" />
  <path d="M 590,0 590, 65" style="stroke-width:1;stroke:#888888;stroke-dasharray:4,4" />
  <text x="590" y="90" style="font-size:13px;text-anchor:middle;">280</text>
  <path d="M 610,0 610, 65" style="stroke-width:1;stroke:#888888;stroke-dasharray:4,4" />
  <path d="M 630,0 630, 65" style="stroke-width:1;stroke:#888888;stroke-dasharray:4,4" />
  <text x="630" y="90" style="font-size:13px;text-anchor:middle;">300</text>
  <path d="M 650,0 650, 65" style="stroke-width:1;stroke:#888888;stroke-dasharray:4,4" />
  <path d="M 670,0 670, 65" style="stroke-width:1;stroke:#888888;stroke-dasharray:4,4" />
  <text x="670" y="90" style="font-size:13px;text-anchor:middle;">320</text>
  <path d="M 690,0 690, 65" style="stroke-width:1;stroke:#888888;stroke-dasharray:4,4" />
  <path d="M 710,0 710, 65" style="stroke-width:1;stroke:#888888;stroke-dasharray:4,4" />
  <text x="710" y="90" style="font-size:13px;text-anchor:middle;">340</text>
  <path d="M 730,0 730, 65" style="stroke-width:1;stroke:#888888;stroke-dasharray:4,4" />
  <rect x="32" y="2" width="60" height="20" style="color:#000000;fill:#000000;opacity:0.3" />
  <rect x="30" y="0" width="60" height="20" style="fill:url(#grad1);stroke:#000000;stroke-width:1;" />
  <rect x="192" y="2" width="60" height="20" style="color:#000000;fill:#000000;opacity:0.3" />
  <rect x="190" y="0" width="60" height="20" style="fill:url(#grad1);stroke:#000000;stroke-width:1;" />
  <rect x="352" y="2" width="60" height="20" style="color:#000000;fill:#000000;opacity:0.3" />
  <rect x="350" y="0" width="60" height="20" style="fill:url(#grad1);stroke:#000000;stroke-width:1;" />
  <rect x="512" y="2" width="60" height="20" style="color:#000000;fill:#000000;opacity:0.3" />
  <rect x="510" y="0" width="60" height="20" style="fill:url(#grad1);stroke:#000000;stroke-width:1;" />
  <rect x="672" y="2" width="60" height="20" style="color:#000000;fill:#000000;opacity:0.3" />
  <rect x="670" y="0" width="60" height="20" style="fill:url(#grad1);stroke:#000000;stroke-width:1;" />
  <rect x="92" y="22" width="100" height="20" style="color:#000000;fill:#000000;opacity:0.3" />
  <rect x="90" y="20" width="100" height="20" style="fill:url(#grad2);stroke:#000000;stroke-width:1;" />
  <rect x="252" y="22" width="100" height="20" style="color:#000000;fill:#000000;opacity:0.3" />
  <rect x="250" y="20" width="100" height="20" style="fill:url(#grad2);stroke:#000000;stroke-width:1;" />
  <rect x="412" y="22" width="40" height="20" style="color:#000000;fill:#000000;opacity:0.3" />
  <rect x="410" y="20" width="40" height="20" style="fill:url(#grad2);stroke:#000000;stroke-width:1;" />
  <rect x="572" y="22" width="100" height="20" style="color:#000000;fill:#000000;opacity:0.3" />
  <rect x="570" y="20" width="100" height="20" style="fill:url(#grad2);stroke:#000000;stroke-width:1;" />
  <rect x="732" y="22" width="20" height="20" style="color:#000000;fill:#000000;opacity:0.3" />
  <rect x="730" y="20" width="20" height="20" style="fill:url(#grad2);stroke:#000000;stroke-width:1;" />
  <rect x="452" y="42" width="40" height="20" style="color:#000000;fill:#000000;opacity:0.3" />
  <rect x="450" y="40" width="40" height="20" style="fill:url(#grad3);stroke:#000000;stroke-width:1;" />
  <path d="M 30,0 30,20 25,15 30,20 35,15 30,20" style="stroke-width:1;stroke:#000000;fill:transparent;stroke-linejoin:bevel;" />
  <rect x="187" y="14" width="6" height="6" style="fill:#ffffff;stroke-width:1;stroke:#000000;" />
  <path d="M 190,0 190,20 185,15 190,20 195,15 190,20" style="stroke-width:1;stroke:#000000;fill:transparent;stroke-linejoin:bevel;" />
  <rect x="347" y="14" width="6" height="6" style="fill:#ffffff;stroke-width:1;stroke:#000000;" />
  <path d="M 350,0 350,20 345,15 350,20 355,15 350,20" style="stroke-width:1;stroke:#000000;fill:transparent;stroke-linejoin:bevel;" />
  <rect x="507" y="14" width="6" height="6" style="fill:#ffffff;stroke-width:1;stroke:#000000;" />
  <path d="M 510,0 510,20 505,15 510,20 515,15 510,20" style="stroke-width:1;stroke:#000000;fill:transparent;stroke-linejoin:bevel;" />
  <rect x="667" y="14" width="6" height="6" style="fill:#ffffff;stroke-width:1;stroke:#000000;" />
  <path d="M 670,0 670,20 665,15 670,20 675,15 670,20" style="stroke-width:1;stroke:#000000;fill:transparent;stroke-linejoin:bevel;" />
  <rect x="827" y="14" width="6" height="6" style="fill:#ffffff;stroke-width:1;stroke:#000000;" />
  <path d="M 30,20 30,40 25,35 30,40 35,35 30,40" style="stroke-width:1;stroke:#000000;fill:transparent;stroke-linejoin:bevel;" />
  <rect x="267" y="34" width="6" height="6" style="fill:#ffffff;stroke-width:1;stroke:#000000;" />
  <path d="M 270,20 270,40 265,35 270,40 275,35 270,40" style="stroke-width:1;stroke:#000000;fill:transparent;stroke-linejoin:bevel;" />
  <rect x="507" y="34" width="6" height="6" style="fill:#ffffff;stroke-width:1;stroke:#000000;" />
  <path d="M 510,20 510,40 505,35 510,40 515,35 510,40" style="stroke-width:1;stroke:#000000;fill:transparent;stroke-linejoin:bevel;" />
  <rect x="747" y="34" width="6" height="6" style="fill:#ffffff;stroke-width:1;stroke:#000000;" />
  <path d="M 230,40 230,60 225,55 230,60 235,55 230,60" style="stroke-width:1;stroke:#000000;fill:transparent;stroke-linejoin:bevel;" />
  <rect x="467" y="54" width="6" height="6" style="fill:#ffffff;stroke-width:1;stroke:#000000;" />
  <path d="M 470,40 470,60 465,55 470,60 475,55 470,60" style="stroke-width:1;stroke:#000000;fill:transparent;stroke-linejoin:bevel;" />
  <rect x="707" y="54" width="6" height="6" style="fill:#ffffff;stroke-width:1;stroke:#000000;" />
  <path d="M 710,40 710,60 705,55 710,60 715,55 710,60" style="stroke-width:1;stroke:#000000;fill:transparent;stroke-linejoin:bevel;" />
  <rect x="947" y="54" width="6" height="6" style="fill:#ffffff;stroke-width:1;stroke:#000000;" />
 </g>
</svg>
