<?xml version="1.0" encoding="UTF-8" standalone="no"?>
<svg width="270" height="90" version="1.1" xmlns:svg="http://www.w3.org/2000/svg" xmlns="http://www.w3.org/2000/svg">
 <defs>
  <linearGradient id="grad1" x1="0" y1="0" x2="0" y2="1">
   <stop style="stop-color:#E8B7D7;stop-opacity:1;" offset="0" />
   <stop style="stop-color:#F491DF;stop-opacity:1;" offset="1" />
  </linearGradient>
  <linearGradient id="grad2" x1="0" y1="0" x2="0" y2="1">
   <stop style="stop-color:#A4C0E4;stop-opacity:1;" offset="0" />
   <stop style="stop-color:#6193CF;stop-opacity:1;" offset="1" />
  </linearGradient>
  <linearGradient id="grad3" x1="0" y1="0" x2="0" y2="1">
   <stop style="stop-color:#FFF6C8;stop-opacity:1;" offset="0" />
   <stop style="stop-color:#FFF299;stop-opacity:1;" offset="1" />
  </linearGradient>
  <linearGradient id="grad4" x1="0" y1="0" x2="0" y2="1">
   <stop style="stop-color:#BFFFBF;stop-opacity:1;" offset="0" />
   <stop style="stop-color:#80FF80;stop-opacity:1;" offset="1" />
  </linearGradient>
  <filter id="blur">
   <feGaussianBlur stdDeviation="2.85" />
  </filter>
 </defs>
 <g>
  <text x="0" y="15" style="font-size:13px;">T1</text>
  <text x="0" y="35" style="font-size:13px;">T2</text>
  <text x="0" y="55" style="font-size:13px;">T3</text>
  <path d="M 25,0 25,65" style="stroke-width:1;stroke:#000000;" />
  <path d="M 25,65 270,65" style="stroke-width:1;stroke:#000000;" />
  <path d="M 30,0 30, 65" style="stroke-width:1;stroke:#888888;stroke-dasharray:4,4" />
  <text x="30" y="90" style="font-size:13px;text-anchor:middle;">0</text>
  <path d="M 50,0 50, 65" style="stroke-width:1;stroke:#888888;stroke-dasharray:4,4" />
  <path d="M 70,0 70, 65" style="stroke-width:1;stroke:#888888;stroke-dasharray:4,4" />
  <text x="70" y="90" style="font-size:13px;text-anchor:middle;">20</text>
  <path d="M 90,0 90, 65" style="stroke-width:1;stroke:#888888;stroke-dasharray:4,4" />
  <path d="M 110,0 110, 65" style="stroke-width:1;stroke:#888888;stroke-dasharray:4,4" />
  <text x="110" y="90" style="font-size:13px;text-anchor:middle;">40</text>
  <path d="M 130,0 130, 65" style="stroke-width:1;stroke:#888888;stroke-dasharray:4,4" />
  <path d="M 150,0 150, 65" style="stroke-width:1;stroke:#888888;stroke-dasharray:4,4" />
  <text x="150" y="90" style="font-size:13px;text-anchor:middle;">60</text>
  <path d="M 170,0 170, 65" style="stroke-width:1;stroke:#888888;stroke-dasharray:4,4" />
  <path d="M 190,0 190, 65" style="stroke-width:1;stroke:#888888;stroke-dasharray:4,4" />
  <text x="190" y="90" style="font-size:13px;text-anchor:middle;">80</text>
  <path d="M 210,0 210, 65" style="stroke-width:1;stroke:#888888;stroke-dasharray:4,4" />
  <path d="M 230,0 230, 65" style="stroke-width:1;stroke:#888888;stroke-dasharray:4,4" />
  <text x="230" y="90" style="font-size:13px;text-anchor:middle;">100</text>
  <path d="M 250,0 250, 65" style="stroke-width:1;stroke:#888888;stroke-dasharray:4,4" />
  <rect x="32" y="2" width="60" height="20" style="color:#000000;fill:#000000;opacity:0.3;filter:url(#blur);" />
  <rect x="30" y="0" width="60" height="20" style="fill:url(#grad1);stroke:#000000;stroke-width:1;" />
  <rect x="192" y="2" width="60" height="20" style="color:#000000;fill:#000000;opacity:0.3;filter:url(#blur);" />
  <rect x="190" y="0" width="60" height="20" style="fill:url(#grad1);stroke:#000000;stroke-width:1;" />
  <rect x="92" y="22" width="100" height="20" style="color:#000000;fill:#000000;opacity:0.3;filter:url(#blur);" />
  <rect x="90" y="20" width="100" height="20" style="fill:url(#grad2);stroke:#000000;stroke-width:1;" />
  <rect x="269" y="20" width="2" height="20" style="stroke-width:2;stroke:#ff0000;" />
  <rect x="252" y="42" width="20" height="20" style="color:#000000;fill:#000000;opacity:0.3;filter:url(#blur);" />
  <rect x="250" y="40" width="20" height="20" style="fill:url(#grad3);stroke:#000000;stroke-width:1;" />
  <path d="M 30,0 30,20" style="stroke-width:1;stroke:#000000;marker-end:url(#Arrow1Lend);" />
  <rect x="187" y="14" width="6" height="6" style="fill:#ffffff;stroke-width:1;stroke:#000000;" />
  <path d="M 190,0 190,20" style="stroke-width:1;stroke:#000000;marker-end:url(#Arrow1Lend);" />
  <rect x="347" y="14" width="6" height="6" style="fill:#ffffff;stroke-width:1;stroke:#000000;" />
  <path d="M 30,20 30,40" style="stroke-width:1;stroke:#000000;marker-end:url(#Arrow1Lend);" />
  <rect x="267" y="34" width="6" height="6" style="fill:#ffffff;stroke-width:1;stroke:#000000;" />
  <path d="M 230,40 230,60" style="stroke-width:1;stroke:#000000;marker-end:url(#Arrow1Lend);" />
  <rect x="465" y="54" width="6" height="6" style="fill:#ffffff;stroke-width:1;stroke:#000000;" />
 </g>
</svg>
