<?xml version="1.0" encoding="UTF-8" standalone="no"?>
<svg width="228" height="70" version="1.1" xmlns:svg="http://www.w3.org/2000/svg" xmlns="http://www.w3.org/2000/svg">
 <defs>
  <linearGradient id="grad1" x1="0" y1="0" x2="0" y2="1">
   <stop style="stop-color:#E8B7D7;stop-opacity:1;" offset="0" />
   <stop style="stop-color:#F491DF;stop-opacity:1;" offset="1" />
  </linearGradient>
  <linearGradient id="grad2" x1="0" y1="0" x2="0" y2="1">
   <stop style="stop-color:#A4C0E4;stop-opacity:1;" offset="0" />
   <stop style="stop-color:#6193CF;stop-opacity:1;" offset="1" />
  </linearGradient>
  <linearGradient id="grad3" x1="0" y1="0" x2="0" y2="1">
   <stop style="stop-color:#FFF6C8;stop-opacity:1;" offset="0" />
   <stop style="stop-color:#FFF299;stop-opacity:1;" offset="1" />
  </linearGradient>
  <linearGradient id="grad4" x1="0" y1="0" x2="0" y2="1">
   <stop style="stop-color:#BFFFBF;stop-opacity:1;" offset="0" />
   <stop style="stop-color:#80FF80;stop-opacity:1;" offset="1" />
  </linearGradient>
  <filter id="blur">
   <feGaussianBlur stdDeviation="2.85" />
  </filter>
 </defs>
 <g>
  <text x="0" y="15" style="font-size:13px;">T1</text>
  <text x="0" y="35" style="font-size:13px;">T2</text>
  <path d="M 25,0 25,45" style="stroke-width:1;stroke:#000000;" />
  <path d="M 25,45 228,45" style="stroke-width:1;stroke:#000000;" />
  <path d="M 30,0 30, 45" style="stroke-width:1;stroke:#888888;stroke-dasharray:4,4" />
  <text x="30" y="70" style="font-size:13px;text-anchor:middle;">0</text>
  <path d="M 50,0 50, 45" style="stroke-width:1;stroke:#888888;stroke-dasharray:4,4" />
  <path d="M 70,0 70, 45" style="stroke-width:1;stroke:#888888;stroke-dasharray:4,4" />
  <text x="70" y="70" style="font-size:13px;text-anchor:middle;">20</text>
  <path d="M 90,0 90, 45" style="stroke-width:1;stroke:#888888;stroke-dasharray:4,4" />
  <path d="M 110,0 110, 45" style="stroke-width:1;stroke:#888888;stroke-dasharray:4,4" />
  <text x="110" y="70" style="font-size:13px;text-anchor:middle;">40</text>
  <path d="M 130,0 130, 45" style="stroke-width:1;stroke:#888888;stroke-dasharray:4,4" />
  <path d="M 150,0 150, 45" style="stroke-width:1;stroke:#888888;stroke-dasharray:4,4" />
  <text x="150" y="70" style="font-size:13px;text-anchor:middle;">60</text>
  <path d="M 170,0 170, 45" style="stroke-width:1;stroke:#888888;stroke-dasharray:4,4" />
  <path d="M 190,0 190, 45" style="stroke-width:1;stroke:#888888;stroke-dasharray:4,4" />
  <text x="190" y="70" style="font-size:13px;text-anchor:middle;">80</text>
  <path d="M 210,0 210, 45" style="stroke-width:1;stroke:#888888;stroke-dasharray:4,4" />
  <rect x="32" y="2" width="2" height="20" style="color:#000000;fill:#000000;opacity:0.3;filter:url(#blur);" />
  <rect x="30" y="0" width="2" height="20" style="fill:url(#grad1);stroke:#000000;stroke-width:1;" />
  <rect x="36" y="2" width="2" height="20" style="color:#000000;fill:#000000;opacity:0.3;filter:url(#blur);" />
  <rect x="34" y="0" width="2" height="20" style="fill:url(#grad1);stroke:#000000;stroke-width:1;" />
  <rect x="40" y="2" width="2" height="20" style="color:#000000;fill:#000000;opacity:0.3;filter:url(#blur);" />
  <rect x="38" y="0" width="2" height="20" style="fill:url(#grad1);stroke:#000000;stroke-width:1;" />
  <rect x="44" y="2" width="2" height="20" style="color:#000000;fill:#000000;opacity:0.3;filter:url(#blur);" />
  <rect x="42" y="0" width="2" height="20" style="fill:url(#grad1);stroke:#000000;stroke-width:1;" />
  <rect x="48" y="2" width="2" height="20" style="color:#000000;fill:#000000;opacity:0.3;filter:url(#blur);" />
  <rect x="46" y="0" width="2" height="20" style="fill:url(#grad1);stroke:#000000;stroke-width:1;" />
  <rect x="52" y="2" width="2" height="20" style="color:#000000;fill:#000000;opacity:0.3;filter:url(#blur);" />
  <rect x="50" y="0" width="2" height="20" style="fill:url(#grad1);stroke:#000000;stroke-width:1;" />
  <rect x="56" y="2" width="2" height="20" style="color:#000000;fill:#000000;opacity:0.3;filter:url(#blur);" />
  <rect x="54" y="0" width="2" height="20" style="fill:url(#grad1);stroke:#000000;stroke-width:1;" />
  <rect x="60" y="2" width="2" height="20" style="color:#000000;fill:#000000;opacity:0.3;filter:url(#blur);" />
  <rect x="58" y="0" width="2" height="20" style="fill:url(#grad1);stroke:#000000;stroke-width:1;" />
  <rect x="64" y="2" width="2" height="20" style="color:#000000;fill:#000000;opacity:0.3;filter:url(#blur);" />
  <rect x="62" y="0" width="2" height="20" style="fill:url(#grad1);stroke:#000000;stroke-width:1;" />
  <rect x="68" y="2" width="2" height="20" style="color:#000000;fill:#000000;opacity:0.3;filter:url(#blur);" />
  <rect x="66" y="0" width="2" height="20" style="fill:url(#grad1);stroke:#000000;stroke-width:1;" />
  <rect x="72" y="2" width="2" height="20" style="color:#000000;fill:#000000;opacity:0.3;filter:url(#blur);" />
  <rect x="70" y="0" width="2" height="20" style="fill:url(#grad1);stroke:#000000;stroke-width:1;" />
  <rect x="76" y="2" width="2" height="20" style="color:#000000;fill:#000000;opacity:0.3;filter:url(#blur);" />
  <rect x="74" y="0" width="2" height="20" style="fill:url(#grad1);stroke:#000000;stroke-width:1;" />
  <rect x="80" y="2" width="2" height="20" style="color:#000000;fill:#000000;opacity:0.3;filter:url(#blur);" />
  <rect x="78" y="0" width="2" height="20" style="fill:url(#grad1);stroke:#000000;stroke-width:1;" />
  <rect x="84" y="2" width="2" height="20" style="color:#000000;fill:#000000;opacity:0.3;filter:url(#blur);" />
  <rect x="82" y="0" width="2" height="20" style="fill:url(#grad1);stroke:#000000;stroke-width:1;" />
  <rect x="88" y="2" width="2" height="20" style="color:#000000;fill:#000000;opacity:0.3;filter:url(#blur);" />
  <rect x="86" y="0" width="2" height="20" style="fill:url(#grad1);stroke:#000000;stroke-width:1;" />
  <rect x="92" y="2" width="2" height="20" style="color:#000000;fill:#000000;opacity:0.3;filter:url(#blur);" />
  <rect x="90" y="0" width="2" height="20" style="fill:url(#grad1);stroke:#000000;stroke-width:1;" />
  <rect x="96" y="2" width="2" height="20" style="color:#000000;fill:#000000;opacity:0.3;filter:url(#blur);" />
  <rect x="94" y="0" width="2" height="20" style="fill:url(#grad1);stroke:#000000;stroke-width:1;" />
  <rect x="100" y="2" width="2" height="20" style="color:#000000;fill:#000000;opacity:0.3;filter:url(#blur);" />
  <rect x="98" y="0" width="2" height="20" style="fill:url(#grad1);stroke:#000000;stroke-width:1;" />
  <rect x="104" y="2" width="2" height="20" style="color:#000000;fill:#000000;opacity:0.3;filter:url(#blur);" />
  <rect x="102" y="0" width="2" height="20" style="fill:url(#grad1);stroke:#000000;stroke-width:1;" />
  <rect x="108" y="2" width="2" height="20" style="color:#000000;fill:#000000;opacity:0.3;filter:url(#blur);" />
  <rect x="106" y="0" width="2" height="20" style="fill:url(#grad1);stroke:#000000;stroke-width:1;" />
  <rect x="112" y="2" width="2" height="20" style="color:#000000;fill:#000000;opacity:0.3;filter:url(#blur);" />
  <rect x="110" y="0" width="2" height="20" style="fill:url(#grad1);stroke:#000000;stroke-width:1;" />
  <rect x="116" y="2" width="2" height="20" style="color:#000000;fill:#000000;opacity:0.3;filter:url(#blur);" />
  <rect x="114" y="0" width="2" height="20" style="fill:url(#grad1);stroke:#000000;stroke-width:1;" />
  <rect x="120" y="2" width="2" height="20" style="color:#000000;fill:#000000;opacity:0.3;filter:url(#blur);" />
  <rect x="118" y="0" width="2" height="20" style="fill:url(#grad1);stroke:#000000;stroke-width:1;" />
  <rect x="124" y="2" width="2" height="20" style="color:#000000;fill:#000000;opacity:0.3;filter:url(#blur);" />
  <rect x="122" y="0" width="2" height="20" style="fill:url(#grad1);stroke:#000000;stroke-width:1;" />
  <rect x="128" y="2" width="2" height="20" style="color:#000000;fill:#000000;opacity:0.3;filter:url(#blur);" />
  <rect x="126" y="0" width="2" height="20" style="fill:url(#grad1);stroke:#000000;stroke-width:1;" />
  <rect x="132" y="2" width="2" height="20" style="color:#000000;fill:#000000;opacity:0.3;filter:url(#blur);" />
  <rect x="130" y="0" width="2" height="20" style="fill:url(#grad1);stroke:#000000;stroke-width:1;" />
  <rect x="136" y="2" width="2" height="20" style="color:#000000;fill:#000000;opacity:0.3;filter:url(#blur);" />
  <rect x="134" y="0" width="2" height="20" style="fill:url(#grad1);stroke:#000000;stroke-width:1;" />
  <rect x="140" y="2" width="2" height="20" style="color:#000000;fill:#000000;opacity:0.3;filter:url(#blur);" />
  <rect x="138" y="0" width="2" height="20" style="fill:url(#grad1);stroke:#000000;stroke-width:1;" />
  <rect x="144" y="2" width="2" height="20" style="color:#000000;fill:#000000;opacity:0.3;filter:url(#blur);" />
  <rect x="142" y="0" width="2" height="20" style="fill:url(#grad1);stroke:#000000;stroke-width:1;" />
  <rect x="148" y="2" width="2" height="20" style="color:#000000;fill:#000000;opacity:0.3;filter:url(#blur);" />
  <rect x="146" y="0" width="2" height="20" style="fill:url(#grad1);stroke:#000000;stroke-width:1;" />
  <rect x="152" y="2" width="2" height="20" style="color:#000000;fill:#000000;opacity:0.3;filter:url(#blur);" />
  <rect x="150" y="0" width="2" height="20" style="fill:url(#grad1);stroke:#000000;stroke-width:1;" />
  <rect x="156" y="2" width="2" height="20" style="color:#000000;fill:#000000;opacity:0.3;filter:url(#blur);" />
  <rect x="154" y="0" width="2" height="20" style="fill:url(#grad1);stroke:#000000;stroke-width:1;" />
  <rect x="160" y="2" width="2" height="20" style="color:#000000;fill:#000000;opacity:0.3;filter:url(#blur);" />
  <rect x="158" y="0" width="2" height="20" style="fill:url(#grad1);stroke:#000000;stroke-width:1;" />
  <rect x="164" y="2" width="2" height="20" style="color:#000000;fill:#000000;opacity:0.3;filter:url(#blur);" />
  <rect x="162" y="0" width="2" height="20" style="fill:url(#grad1);stroke:#000000;stroke-width:1;" />
  <rect x="168" y="2" width="2" height="20" style="color:#000000;fill:#000000;opacity:0.3;filter:url(#blur);" />
  <rect x="166" y="0" width="2" height="20" style="fill:url(#grad1);stroke:#000000;stroke-width:1;" />
  <rect x="172" y="2" width="2" height="20" style="color:#000000;fill:#000000;opacity:0.3;filter:url(#blur);" />
  <rect x="170" y="0" width="2" height="20" style="fill:url(#grad1);stroke:#000000;stroke-width:1;" />
  <rect x="176" y="2" width="2" height="20" style="color:#000000;fill:#000000;opacity:0.3;filter:url(#blur);" />
  <rect x="174" y="0" width="2" height="20" style="fill:url(#grad1);stroke:#000000;stroke-width:1;" />
  <rect x="180" y="2" width="2" height="20" style="color:#000000;fill:#000000;opacity:0.3;filter:url(#blur);" />
  <rect x="178" y="0" width="2" height="20" style="fill:url(#grad1);stroke:#000000;stroke-width:1;" />
  <rect x="184" y="2" width="2" height="20" style="color:#000000;fill:#000000;opacity:0.3;filter:url(#blur);" />
  <rect x="182" y="0" width="2" height="20" style="fill:url(#grad1);stroke:#000000;stroke-width:1;" />
  <rect x="188" y="2" width="2" height="20" style="color:#000000;fill:#000000;opacity:0.3;filter:url(#blur);" />
  <rect x="186" y="0" width="2" height="20" style="fill:url(#grad1);stroke:#000000;stroke-width:1;" />
  <rect x="34" y="22" width="2" height="20" style="color:#000000;fill:#000000;opacity:0.3;filter:url(#blur);" />
  <rect x="32" y="20" width="2" height="20" style="fill:url(#grad2);stroke:#000000;stroke-width:1;" />
  <rect x="38" y="22" width="2" height="20" style="color:#000000;fill:#000000;opacity:0.3;filter:url(#blur);" />
  <rect x="36" y="20" width="2" height="20" style="fill:url(#grad2);stroke:#000000;stroke-width:1;" />
  <rect x="42" y="22" width="2" height="20" style="color:#000000;fill:#000000;opacity:0.3;filter:url(#blur);" />
  <rect x="40" y="20" width="2" height="20" style="fill:url(#grad2);stroke:#000000;stroke-width:1;" />
  <rect x="46" y="22" width="2" height="20" style="color:#000000;fill:#000000;opacity:0.3;filter:url(#blur);" />
  <rect x="44" y="20" width="2" height="20" style="fill:url(#grad2);stroke:#000000;stroke-width:1;" />
  <rect x="50" y="22" width="2" height="20" style="color:#000000;fill:#000000;opacity:0.3;filter:url(#blur);" />
  <rect x="48" y="20" width="2" height="20" style="fill:url(#grad2);stroke:#000000;stroke-width:1;" />
  <rect x="54" y="22" width="2" height="20" style="color:#000000;fill:#000000;opacity:0.3;filter:url(#blur);" />
  <rect x="52" y="20" width="2" height="20" style="fill:url(#grad2);stroke:#000000;stroke-width:1;" />
  <rect x="58" y="22" width="2" height="20" style="color:#000000;fill:#000000;opacity:0.3;filter:url(#blur);" />
  <rect x="56" y="20" width="2" height="20" style="fill:url(#grad2);stroke:#000000;stroke-width:1;" />
  <rect x="62" y="22" width="2" height="20" style="color:#000000;fill:#000000;opacity:0.3;filter:url(#blur);" />
  <rect x="60" y="20" width="2" height="20" style="fill:url(#grad2);stroke:#000000;stroke-width:1;" />
  <rect x="66" y="22" width="2" height="20" style="color:#000000;fill:#000000;opacity:0.3;filter:url(#blur);" />
  <rect x="64" y="20" width="2" height="20" style="fill:url(#grad2);stroke:#000000;stroke-width:1;" />
  <rect x="70" y="22" width="2" height="20" style="color:#000000;fill:#000000;opacity:0.3;filter:url(#blur);" />
  <rect x="68" y="20" width="2" height="20" style="fill:url(#grad2);stroke:#000000;stroke-width:1;" />
  <rect x="74" y="22" width="2" height="20" style="color:#000000;fill:#000000;opacity:0.3;filter:url(#blur);" />
  <rect x="72" y="20" width="2" height="20" style="fill:url(#grad2);stroke:#000000;stroke-width:1;" />
  <rect x="78" y="22" width="2" height="20" style="color:#000000;fill:#000000;opacity:0.3;filter:url(#blur);" />
  <rect x="76" y="20" width="2" height="20" style="fill:url(#grad2);stroke:#000000;stroke-width:1;" />
  <rect x="82" y="22" width="2" height="20" style="color:#000000;fill:#000000;opacity:0.3;filter:url(#blur);" />
  <rect x="80" y="20" width="2" height="20" style="fill:url(#grad2);stroke:#000000;stroke-width:1;" />
  <rect x="86" y="22" width="2" height="20" style="color:#000000;fill:#000000;opacity:0.3;filter:url(#blur);" />
  <rect x="84" y="20" width="2" height="20" style="fill:url(#grad2);stroke:#000000;stroke-width:1;" />
  <rect x="90" y="22" width="2" height="20" style="color:#000000;fill:#000000;opacity:0.3;filter:url(#blur);" />
  <rect x="88" y="20" width="2" height="20" style="fill:url(#grad2);stroke:#000000;stroke-width:1;" />
  <rect x="94" y="22" width="2" height="20" style="color:#000000;fill:#000000;opacity:0.3;filter:url(#blur);" />
  <rect x="92" y="20" width="2" height="20" style="fill:url(#grad2);stroke:#000000;stroke-width:1;" />
  <rect x="98" y="22" width="2" height="20" style="color:#000000;fill:#000000;opacity:0.3;filter:url(#blur);" />
  <rect x="96" y="20" width="2" height="20" style="fill:url(#grad2);stroke:#000000;stroke-width:1;" />
  <rect x="102" y="22" width="2" height="20" style="color:#000000;fill:#000000;opacity:0.3;filter:url(#blur);" />
  <rect x="100" y="20" width="2" height="20" style="fill:url(#grad2);stroke:#000000;stroke-width:1;" />
  <rect x="106" y="22" width="2" height="20" style="color:#000000;fill:#000000;opacity:0.3;filter:url(#blur);" />
  <rect x="104" y="20" width="2" height="20" style="fill:url(#grad2);stroke:#000000;stroke-width:1;" />
  <rect x="110" y="22" width="2" height="20" style="color:#000000;fill:#000000;opacity:0.3;filter:url(#blur);" />
  <rect x="108" y="20" width="2" height="20" style="fill:url(#grad2);stroke:#000000;stroke-width:1;" />
  <rect x="114" y="22" width="2" height="20" style="color:#000000;fill:#000000;opacity:0.3;filter:url(#blur);" />
  <rect x="112" y="20" width="2" height="20" style="fill:url(#grad2);stroke:#000000;stroke-width:1;" />
  <rect x="118" y="22" width="2" height="20" style="color:#000000;fill:#000000;opacity:0.3;filter:url(#blur);" />
  <rect x="116" y="20" width="2" height="20" style="fill:url(#grad2);stroke:#000000;stroke-width:1;" />
  <rect x="122" y="22" width="2" height="20" style="color:#000000;fill:#000000;opacity:0.3;filter:url(#blur);" />
  <rect x="120" y="20" width="2" height="20" style="fill:url(#grad2);stroke:#000000;stroke-width:1;" />
  <rect x="126" y="22" width="2" height="20" style="color:#000000;fill:#000000;opacity:0.3;filter:url(#blur);" />
  <rect x="124" y="20" width="2" height="20" style="fill:url(#grad2);stroke:#000000;stroke-width:1;" />
  <rect x="130" y="22" width="2" height="20" style="color:#000000;fill:#000000;opacity:0.3;filter:url(#blur);" />
  <rect x="128" y="20" width="2" height="20" style="fill:url(#grad2);stroke:#000000;stroke-width:1;" />
  <rect x="134" y="22" width="2" height="20" style="color:#000000;fill:#000000;opacity:0.3;filter:url(#blur);" />
  <rect x="132" y="20" width="2" height="20" style="fill:url(#grad2);stroke:#000000;stroke-width:1;" />
  <rect x="138" y="22" width="2" height="20" style="color:#000000;fill:#000000;opacity:0.3;filter:url(#blur);" />
  <rect x="136" y="20" width="2" height="20" style="fill:url(#grad2);stroke:#000000;stroke-width:1;" />
  <rect x="142" y="22" width="2" height="20" style="color:#000000;fill:#000000;opacity:0.3;filter:url(#blur);" />
  <rect x="140" y="20" width="2" height="20" style="fill:url(#grad2);stroke:#000000;stroke-width:1;" />
  <rect x="146" y="22" width="2" height="20" style="color:#000000;fill:#000000;opacity:0.3;filter:url(#blur);" />
  <rect x="144" y="20" width="2" height="20" style="fill:url(#grad2);stroke:#000000;stroke-width:1;" />
  <rect x="150" y="22" width="2" height="20" style="color:#000000;fill:#000000;opacity:0.3;filter:url(#blur);" />
  <rect x="148" y="20" width="2" height="20" style="fill:url(#grad2);stroke:#000000;stroke-width:1;" />
  <rect x="154" y="22" width="2" height="20" style="color:#000000;fill:#000000;opacity:0.3;filter:url(#blur);" />
  <rect x="152" y="20" width="2" height="20" style="fill:url(#grad2);stroke:#000000;stroke-width:1;" />
  <rect x="158" y="22" width="2" height="20" style="color:#000000;fill:#000000;opacity:0.3;filter:url(#blur);" />
  <rect x="156" y="20" width="2" height="20" style="fill:url(#grad2);stroke:#000000;stroke-width:1;" />
  <rect x="162" y="22" width="2" height="20" style="color:#000000;fill:#000000;opacity:0.3;filter:url(#blur);" />
  <rect x="160" y="20" width="2" height="20" style="fill:url(#grad2);stroke:#000000;stroke-width:1;" />
  <rect x="166" y="22" width="2" height="20" style="color:#000000;fill:#000000;opacity:0.3;filter:url(#blur);" />
  <rect x="164" y="20" width="2" height="20" style="fill:url(#grad2);stroke:#000000;stroke-width:1;" />
  <rect x="170" y="22" width="2" height="20" style="color:#000000;fill:#000000;opacity:0.3;filter:url(#blur);" />
  <rect x="168" y="20" width="2" height="20" style="fill:url(#grad2);stroke:#000000;stroke-width:1;" />
  <rect x="174" y="22" width="2" height="20" style="color:#000000;fill:#000000;opacity:0.3;filter:url(#blur);" />
  <rect x="172" y="20" width="2" height="20" style="fill:url(#grad2);stroke:#000000;stroke-width:1;" />
  <rect x="178" y="22" width="2" height="20" style="color:#000000;fill:#000000;opacity:0.3;filter:url(#blur);" />
  <rect x="176" y="20" width="2" height="20" style="fill:url(#grad2);stroke:#000000;stroke-width:1;" />
  <rect x="182" y="22" width="2" height="20" style="color:#000000;fill:#000000;opacity:0.3;filter:url(#blur);" />
  <rect x="180" y="20" width="2" height="20" style="fill:url(#grad2);stroke:#000000;stroke-width:1;" />
  <rect x="186" y="22" width="2" height="20" style="color:#000000;fill:#000000;opacity:0.3;filter:url(#blur);" />
  <rect x="184" y="20" width="2" height="20" style="fill:url(#grad2);stroke:#000000;stroke-width:1;" />
  <rect x="190" y="22" width="22" height="20" style="color:#000000;fill:#000000;opacity:0.3;filter:url(#blur);" />
  <rect x="188" y="20" width="22" height="20" style="fill:url(#grad2);stroke:#000000;stroke-width:1;" />
  <path d="M 30,0 30,20" style="stroke-width:1;stroke:#000000;marker-end:url(#Arrow1Lend);" />
  <rect x="187" y="14" width="6" height="6" style="fill:#ffffff;stroke-width:1;stroke:#000000;" />
  <path d="M 30,20 30,40" style="stroke-width:1;stroke:#000000;marker-end:url(#Arrow1Lend);" />
  <rect x="207" y="34" width="6" height="6" style="fill:#ffffff;stroke-width:1;stroke:#000000;" />
 </g>
</svg>
